 <svg version="1.0" xmlns="http://www.w3.org/2000/svg" width="700.000000pt" height="714.000000pt" viewBox="0 0 700.000000 714.000000" preserveAspectRatio="xMidYMid meet">
<metadata>
Created by potrace 1.12, written by Peter Selinger 2001-2015
</metadata>
<g transform="translate(0.000000,714.000000) scale(0.100000,-0.100000)" fill="#000000" stroke="none">
<path d="M0 3570 l0 -3570 1239 0 1238 0 6 42 c3 26 15 50 30 64 31 28 43 62
28 77 -6 6 -11 21 -11 34 0 13 -6 23 -14 23 -18 0 -66 130 -66 181 0 21 -6 65
-14 97 -31 125 -44 210 -41 267 3 38 -1 71 -10 91 -22 48 -37 277 -33 530 2
184 0 235 -11 248 -13 16 -16 56 -23 351 -1 39 -5 172 -9 297 l-7 227 -37 68
c-58 105 -106 336 -167 799 -7 54 -8 107 -1 158 10 84 1 120 -38 144 -16 10
-19 10 -14 1 16 -25 -17 0 -100 76 -33 30 -63 55 -67 55 -5 0 -8 4 -8 10 0 5
-13 22 -29 37 -28 28 -43 50 -98 147 -54 95 -62 111 -63 131 0 11 -7 29 -15
39 -8 10 -12 23 -9 27 3 5 0 18 -7 31 -6 12 -22 74 -35 137 -13 64 -28 132
-34 151 -5 19 -10 36 -10 37 0 1 17 -5 38 -14 59 -26 278 -23 412 5 148 31
196 49 224 83 30 35 52 104 68 208 14 97 30 113 106 109 57 -3 57 -3 70 -42 7
-21 13 -70 14 -108 1 -46 5 -68 13 -68 7 0 25 -24 40 -54 15 -30 43 -70 63
-90 32 -34 34 -39 22 -62 -8 -13 -35 -41 -61 -60 -64 -49 -102 -138 -68 -159
7 -5 4 -14 -7 -26 -16 -17 -16 -19 -1 -19 10 0 17 6 17 13 0 11 78 33 142 40
9 1 26 12 38 25 11 12 27 22 35 22 8 0 15 4 15 8 0 5 15 20 33 33 36 27 39 35
40 97 0 35 -6 49 -33 77 -39 41 -47 43 -52 14 -5 -35 -33 -47 -58 -24 -17 16
-21 27 -16 55 5 36 -19 80 -43 80 -6 0 -11 9 -11 20 0 24 6 25 56 4 32 -13 53
-14 144 -5 149 14 252 37 318 71 32 15 73 35 92 43 19 8 50 28 68 43 30 26 34
36 43 109 13 106 17 125 29 125 6 0 13 -14 17 -30 3 -17 10 -33 14 -36 13 -7
11 -115 -2 -152 -10 -29 -8 -34 20 -63 39 -38 54 -69 71 -136 11 -44 11 -57
-2 -90 -8 -21 -20 -37 -25 -36 -6 1 -9 -7 -6 -18 3 -12 2 -24 -3 -28 -17 -12
-48 -83 -46 -104 1 -12 -4 -32 -10 -45 -9 -18 -9 -28 0 -42 12 -20 0 -36 -18
-25 -13 8 -13 -8 0 -21 5 -5 12 -37 15 -69 3 -33 12 -66 19 -75 16 -18 7 -55
-14 -55 -11 0 -14 -8 -12 -29 5 -38 -18 -122 -29 -105 -12 20 -46 -16 -53 -57
-4 -19 -12 -34 -17 -34 -17 0 -35 -23 -43 -54 -9 -38 -35 -76 -52 -76 -8 0
-14 -7 -14 -15 0 -8 -5 -15 -12 -15 -9 0 -9 -3 0 -12 17 -17 15 -25 -9 -31
-16 -4 -19 -11 -14 -26 5 -16 2 -19 -15 -16 -21 4 -60 -26 -60 -46 0 -6 -9 -9
-20 -6 -17 4 -19 1 -14 -18 4 -18 -1 -27 -25 -41 -22 -13 -31 -26 -31 -44 0
-29 -33 -70 -55 -70 -8 0 -19 -8 -24 -17 -8 -14 -13 -15 -19 -5 -6 9 -16 10
-34 3 -14 -5 -29 -7 -32 -4 -3 3 -8 -2 -12 -11 -9 -24 -55 -41 -66 -24 -5 9
-8 10 -8 1 0 -7 -11 -11 -30 -8 -37 4 -100 -15 -100 -30 0 -15 13 -25 65 -53
72 -39 90 -45 195 -61 149 -25 147 -25 207 -1 32 13 62 27 67 32 6 4 22 8 37
8 15 0 32 6 38 14 15 18 87 25 124 13 27 -9 28 -10 11 -36 -9 -14 -48 -65 -86
-113 -38 -49 -66 -88 -63 -88 10 0 127 129 179 198 28 38 76 102 107 143 56
73 163 262 233 412 56 120 71 100 62 -84 -6 -123 -26 -238 -56 -334 -11 -33
-26 -106 -34 -162 -15 -96 -44 -178 -63 -171 -4 2 -11 -28 -15 -65 -5 -58 -13
-78 -51 -135 -45 -67 -45 -67 -50 -175 -3 -59 -1 -109 3 -112 4 -2 18 7 30 20
37 40 44 32 35 -43 -15 -128 -23 -2319 -9 -2464 l6 -58 1719 0 1719 0 0 3570
0 3570 -3500 0 -3500 0 0 -3570z m2479 3319 c19 -12 -81 -3 -125 12 -21 6 -10
7 40 4 38 -3 77 -10 85 -16z m46 -51 c45 -17 69 -39 53 -51 -9 -6 -7 -7 8 -4
22 5 47 -10 52 -31 3 -15 -8 -15 -83 3 -33 8 -73 12 -90 9 -16 -3 -48 0 -70 5
l-40 10 38 -2 c20 -2 37 -2 37 0 0 1 -17 10 -37 19 l-38 15 34 15 c19 8 49 12
65 9 l31 -5 -30 15 -30 15 35 -5 c19 -4 49 -11 65 -17z m-230 -38 c4 -6 -7
-10 -26 -10 -39 0 -28 -19 13 -22 15 -1 25 -5 22 -9 -2 -4 13 -13 33 -19 53
-17 68 -34 23 -26 -19 3 -64 10 -100 16 -69 10 -162 34 -183 47 -20 12 61 31
140 32 39 1 75 -3 78 -9z m-555 -144 c0 -2 -17 -14 -37 -26 l-38 -22 24 26
c21 22 51 35 51 22z m377 -13 c-10 -9 -57 -10 -57 -1 0 4 14 8 32 8 17 0 28
-3 25 -7z m263 -8 c25 -3 52 -10 60 -16 11 -8 9 -9 -10 -3 l-25 7 20 -23 20
-23 -25 8 c-14 4 -34 13 -45 19 -14 9 -65 12 -160 12 -77 -1 -125 0 -107 2 17
2 32 7 32 11 0 4 15 5 33 3 17 -2 50 1 72 6 22 5 51 8 65 6 14 -2 45 -6 70 -9z
m-445 -25 c-7 -11 28 -14 39 -3 10 10 49 12 66 2 13 -7 12 -8 -2 -9 -38 0 -15
-19 30 -25 26 -3 67 -12 92 -20 87 -27 91 -27 88 -13 -2 7 -14 19 -28 25 -22
12 -19 13 30 9 55 -3 150 -34 185 -60 18 -13 18 -14 -5 -11 -14 2 -38 8 -55
15 -16 7 -39 13 -50 15 -11 2 -31 6 -45 10 -24 6 -24 6 -6 -9 11 -9 26 -16 33
-16 7 0 13 -4 13 -10 0 -5 -8 -7 -17 -3 -17 6 -17 5 -2 -13 9 -10 16 -27 16
-37 0 -16 -2 -16 -21 1 -12 11 -28 23 -36 27 -13 8 -13 6 -2 -8 8 -9 11 -21 7
-27 -4 -7 -21 2 -44 23 -54 48 -196 99 -256 90 -36 -4 -46 -2 -51 11 -7 17
-44 23 -44 6 0 -5 -4 -10 -10 -10 -5 0 -7 7 -4 15 4 8 17 15 30 15 13 0 24 5
24 10 0 6 7 10 16 10 8 0 12 -4 9 -10z m8 -87 c-7 -2 -19 -2 -25 0 -7 3 -2 5
12 5 14 0 19 -2 13 -5z m-249 -52 c-5 -5 -25 -11 -44 -14 l-35 -6 40 18 c39
18 58 19 39 2z m1161 -41 c6 -4 32 -10 59 -14 50 -6 156 -53 156 -69 0 -10 41
-46 52 -47 11 0 -11 52 -30 73 -15 17 -15 17 4 11 24 -10 63 -34 93 -59 29
-25 84 -104 84 -121 0 -7 5 -12 10 -11 5 1 12 -14 14 -33 2 -19 12 -46 22 -60
36 -51 36 -55 0 -33 -18 12 -38 31 -44 42 -5 12 -13 21 -17 21 -15 0 -8 -17
17 -40 19 -18 22 -26 13 -32 -10 -6 -10 -8 0 -8 8 0 12 -6 9 -12 -2 -7 2 -26
11 -43 10 -20 11 -30 4 -33 -7 -2 -9 -15 -5 -33 3 -18 1 -29 -6 -29 -13 0 -15
-56 -1 -65 6 -4 5 -15 -2 -30 -9 -19 -7 -30 11 -58 11 -19 21 -46 21 -59 0
-14 9 -33 19 -42 17 -15 31 -52 36 -91 2 -21 18 -71 25 -80 5 -5 10 -23 12
-39 1 -16 8 -31 14 -33 7 -2 39 22 73 53 34 31 61 50 61 42 0 -8 -37 -48 -83
-89 -79 -71 -87 -76 -154 -88 -68 -13 -73 -13 -107 8 -35 22 -36 22 -98 5 -35
-9 -83 -20 -108 -24 -94 -17 -186 -42 -207 -56 -26 -16 -37 -18 -28 -4 3 6 -1
10 -10 10 -12 0 -14 4 -5 19 15 30 13 31 -30 14 -22 -9 -42 -24 -45 -33 -3
-10 -42 -33 -96 -55 -51 -21 -110 -54 -135 -76 -68 -59 -105 -66 -219 -44 -83
17 -105 17 -187 6 -51 -6 -95 -15 -98 -19 -3 -4 -16 -9 -30 -10 -40 -6 -62
-24 -23 -19 42 5 32 -10 -13 -19 -22 -4 -49 -21 -74 -48 -47 -49 -53 -68 -9
-32 17 14 38 26 47 26 12 -1 9 -7 -13 -25 -16 -14 -33 -25 -36 -25 -4 0 -9 -9
-12 -20 -8 -31 25 -25 62 10 31 30 51 32 51 6 0 -7 10 -22 23 -34 18 -17 30
-20 60 -15 41 6 55 19 66 60 5 15 14 27 21 25 11 -3 11 0 0 12 -7 9 -9 16 -5
16 4 0 2 7 -5 15 -18 21 -12 24 64 33 79 10 98 1 117 -56 16 -48 13 -153 -6
-219 -23 -79 -74 -108 -258 -144 -203 -40 -351 -35 -394 14 -36 39 -37 53 -2
21 19 -18 44 -35 57 -39 22 -6 22 -5 16 37 -3 24 -15 77 -25 120 -23 94 -23
99 0 69 11 -14 23 -21 30 -16 9 5 6 14 -12 34 -14 14 -34 45 -46 69 l-22 43
36 15 c19 8 58 20 85 26 28 6 50 17 50 23 0 14 -51 8 -61 -7 -4 -6 -14 -5 -25
2 -16 10 -33 7 -94 -14 -96 -34 -104 -35 -108 -11 -2 11 -7 29 -12 40 -5 11
-11 65 -15 120 -3 55 -8 114 -10 130 -2 17 -6 64 -10 105 -3 41 -8 89 -11 105
-5 32 -16 126 -18 162 0 12 -5 21 -11 20 -20 -4 -15 40 9 73 35 48 44 70 61
152 25 120 72 205 164 296 44 44 66 51 146 51 37 -1 70 2 73 6 8 8 -35 45 -53
45 -7 0 -18 7 -25 15 -20 24 11 19 72 -10 60 -29 72 -31 65 -10 -5 11 -1 12
18 5 28 -11 30 -8 15 21 -8 15 -7 19 4 19 8 0 18 -4 21 -10 3 -5 11 -10 16
-10 6 0 7 5 4 10 -12 20 20 9 45 -15 23 -22 29 -24 53 -12 15 6 27 18 27 26 0
9 4 10 13 4 6 -6 26 -13 42 -17 24 -5 26 -4 13 4 -24 15 -23 30 2 25 11 -2 27
3 36 12 11 12 18 13 27 4 16 -16 56 -14 74 4 11 12 18 13 29 4 7 -6 18 -8 25
-4 6 4 21 2 33 -5 17 -9 33 -9 61 -1 21 6 41 8 45 6 3 -2 12 4 20 15 10 14 19
16 35 10 15 -6 29 -4 43 6 11 8 48 18 82 22 33 5 66 14 73 21 12 12 82 6 102
-9z m-1208 -146 c-3 -3 -12 -4 -19 -1 -8 3 -5 6 6 6 11 1 17 -2 13 -5z m-87
-44 c0 -4 -14 -19 -31 -36 l-30 -29 15 29 c8 16 13 32 11 36 -2 3 5 6 16 6 10
0 19 -3 19 -6z m-224 -247 c-2 -15 -8 -29 -15 -31 -14 -5 -14 0 -1 32 12 34
19 33 16 -1z m-19 -50 c-4 -3 -1 -13 6 -21 9 -12 9 -16 0 -19 -7 -3 -13 -14
-13 -26 0 -18 2 -19 10 -7 8 12 10 10 10 -9 0 -14 -6 -32 -14 -40 -7 -9 -16
-29 -20 -46 l-6 -30 20 24 c15 18 20 19 20 7 0 -24 15 -19 28 9 6 14 18 25 26
25 7 0 21 10 30 23 14 19 15 20 9 2 -3 -11 -19 -37 -34 -57 -16 -20 -29 -41
-29 -47 0 -6 -13 -20 -30 -33 -16 -12 -32 -30 -36 -40 -3 -10 -10 -16 -15 -13
-21 14 0 282 24 297 15 10 23 10 14 1z m38 -123 c-3 -5 -12 -10 -18 -10 -7 0
-6 4 3 10 19 12 23 12 15 0z m1346 -605 c-18 -8 -41 -15 -50 -14 -9 0 0 7 19
14 47 18 74 18 31 0z m72 -12 c-7 -2 -19 -2 -25 0 -7 3 -2 5 12 5 14 0 19 -2
13 -5z m496 -55 c14 -40 21 -87 21 -133 0 -61 -3 -75 -22 -92 -58 -54 -313
-127 -478 -138 -85 -5 -98 -4 -128 15 -18 11 -31 24 -28 29 3 5 -6 30 -21 56
-20 37 -24 52 -16 64 8 12 8 23 1 36 -8 13 -7 24 1 36 6 11 11 27 11 38 0 25
48 71 73 71 20 0 20 0 -1 -23 -34 -36 -26 -42 14 -12 52 40 52 24 0 -31 -25
-26 -44 -50 -41 -53 3 -3 31 22 62 55 31 32 58 55 60 49 32 -91 118 -112 153
-38 10 23 20 31 30 26 8 -3 25 -5 38 -4 12 0 25 -5 28 -12 7 -21 114 -8 114
13 0 11 90 110 100 110 4 0 18 -28 29 -62z m-659 38 c0 -2 -9 -6 -20 -9 -11
-3 -18 -1 -14 4 5 9 34 13 34 5z m230 -76 c0 -5 -4 -10 -10 -10 -5 0 -10 5
-10 10 0 6 5 10 10 10 6 0 10 -4 10 -10z m-1436 -162 c5 -12 1 -20 -14 -28
-28 -15 -32 -10 -38 48 -3 35 1 60 14 88 l19 39 6 -65 c3 -36 9 -73 13 -82z
m29 29 c5 -33 4 -37 -8 -27 -15 13 -20 51 -8 63 9 9 9 8 16 -36z m227 39 c0
-3 -4 -8 -10 -11 -5 -3 -10 -1 -10 4 0 6 5 11 10 11 6 0 10 -2 10 -4z m320
-76 c0 -5 -4 -10 -10 -10 -5 0 -10 5 -10 10 0 6 5 10 10 10 6 0 10 -4 10 -10z
m1630 -2480 c-7 -77 -17 -143 -21 -146 -12 -7 -11 48 1 166 11 100 18 135 27
126 3 -3 0 -69 -7 -146z"></path>
<path d="M3052 6121 c-33 -21 -42 -60 -31 -137 12 -79 29 -105 54 -84 8 7 15
21 15 31 0 10 5 21 11 25 14 8 4 89 -16 138 -9 20 -16 36 -18 36 -1 0 -8 -4
-15 -9z"></path>
<path d="M1782 5043 c-15 -6 -6 -23 14 -23 8 0 14 7 14 15 0 15 -6 17 -28 8z"></path>
<path d="M1831 5040 c-9 -5 -4 -7 13 -7 29 0 32 2 13 10 -8 3 -20 2 -26 -3z"></path>
<path d="M2134 4433 c-10 -26 -38 -75 -62 -111 -57 -83 -86 -152 -64 -152 4 0
17 22 30 49 12 27 37 71 55 97 34 50 77 136 77 154 0 26 -20 5 -36 -37z"></path>
<path d="M2460 4350 c0 -5 5 -10 10 -10 6 0 10 5 10 10 0 6 -4 10 -10 10 -5 0
-10 -4 -10 -10z"></path>
<path d="M2980 4310 c-36 -9 -105 -29 -154 -43 -48 -15 -99 -27 -112 -27 -12
0 -26 -5 -30 -11 -5 -8 -8 -8 -13 0 -5 8 -24 5 -62 -9 -31 -10 -89 -23 -131
-28 -41 -5 -90 -18 -109 -27 -23 -12 -65 -20 -131 -23 -54 -3 -98 -9 -98 -13
0 -5 11 -9 23 -9 13 0 43 -13 65 -30 23 -16 45 -30 50 -30 4 0 24 -11 44 -25
38 -26 68 -32 68 -16 0 14 -19 24 -48 25 -31 1 -72 60 -54 78 8 8 15 8 27 -2
12 -10 21 -10 43 -1 15 6 61 16 102 21 125 17 183 27 239 44 68 20 91 20 91 1
0 -23 16 -18 28 10 25 55 66 10 55 -59 -7 -43 -1 -44 44 -10 25 19 32 31 28
45 -8 25 14 56 26 37 6 -9 22 2 59 42 27 30 50 57 50 61 0 15 -39 15 -100 -1z
m-57 -114 c7 -18 -3 -56 -14 -56 -5 0 -9 16 -9 35 0 35 13 47 23 21z"></path>
<path d="M2616 4078 c15 -46 10 -73 -13 -76 -13 -2 -23 -8 -23 -13 0 -13 15
-11 55 5 37 16 44 30 21 39 -8 3 -17 19 -21 36 -4 17 -11 31 -16 31 -6 0 -7
-9 -3 -22z"></path>
<path d="M2783 4081 c-18 -9 -33 -21 -33 -28 0 -6 -10 -19 -22 -27 -41 -29
-10 -28 37 1 25 15 55 32 66 38 21 11 20 29 -2 31 -8 1 -29 -6 -46 -15z"></path>
<path d="M2981 4039 c-12 -19 -21 -38 -21 -44 0 -5 -9 -21 -20 -35 -30 -38
-24 -47 10 -15 30 28 68 110 57 121 -3 4 -15 -9 -26 -27z"></path>
<path d="M3342 4010 c0 -14 2 -19 5 -12 2 6 2 18 0 25 -3 6 -5 1 -5 -13z"></path>
<path d="M2422 4003 c-7 -7 -9 -14 -5 -14 26 -5 143 -3 143 2 0 23 -119 33
-138 12z"></path>
<path d="M2200 3570 c44 -39 70 -50 70 -30 0 12 -85 70 -102 70 -7 -1 7 -19
32 -40z"></path>
<path d="M2140 3540 c0 -46 30 -170 41 -170 10 0 3 57 -12 98 -5 13 -9 38 -9
57 0 19 -4 37 -10 40 -6 4 -10 -7 -10 -25z"></path>
<path d="M2272 3512 c2 -4 24 -27 51 -51 56 -52 65 -32 9 22 -34 33 -69 50
-60 29z"></path>
<path d="M2517 3353 c-4 -3 -7 -11 -7 -17 0 -6 5 -5 12 2 6 6 9 14 7 17 -3 3
-9 2 -12 -2z"></path>
<path d="M2170 3333 c0 -5 4 -15 10 -23 11 -18 25 -7 17 15 -6 15 -27 21 -27
8z"></path>
<path d="M2190 3276 c0 -14 21 -58 26 -54 8 8 -7 58 -17 58 -5 0 -9 -2 -9 -4z"></path>
<path d="M2236 3167 c3 -10 9 -15 12 -12 3 3 0 11 -7 18 -10 9 -11 8 -5 -6z"></path>
<path d="M2290 3122 c0 -6 17 -21 38 -34 20 -12 61 -42 90 -65 28 -24 52 -41
52 -38 0 13 -134 134 -142 129 -5 -3 -15 0 -23 6 -9 8 -15 8 -15 2z"></path>
<path d="M2530 2966 c0 -2 7 -7 16 -10 8 -3 12 -2 9 4 -6 10 -25 14 -25 6z"></path>
<path d="M3165 2940 c-10 -11 -25 -20 -33 -20 -16 0 -112 -60 -112 -70 0 -18
-79 -60 -111 -60 -20 0 -39 -3 -43 -7 -3 -4 -14 -8 -24 -9 -9 -1 -48 -7 -86
-13 -38 -6 -74 -7 -80 -3 -6 5 -33 17 -61 27 -88 31 -169 72 -189 94 -29 32
-61 26 -110 -19 -74 -68 -91 -134 -54 -204 10 -19 11 -19 24 -2 7 10 17 15 23
12 14 -9 31 -73 31 -118 0 -21 5 -38 10 -38 13 0 13 71 0 106 -17 43 -3 77 53
134 l52 53 90 -48 c179 -96 178 -95 196 -156 34 -110 44 -240 35 -475 -3 -63
-12 -106 -40 -185 -47 -130 -102 -406 -115 -569 -9 -119 -33 -616 -49 -1025
-4 -104 -6 -225 -4 -267 l4 -78 269 0 269 0 0 46 c0 31 4 43 11 38 7 -4 9 -22
6 -45 l-5 -39 112 0 c124 0 113 -6 145 74 10 23 9 32 -4 46 -29 32 -13 84 26
85 12 0 24 6 27 14 3 10 -3 13 -27 9 -21 -3 -31 0 -31 8 0 7 -8 21 -19 31 -11
11 -22 40 -26 73 -4 30 -11 60 -16 66 -5 6 -14 49 -20 95 -6 46 -15 93 -20
104 -12 25 -12 39 -3 137 5 57 3 86 -7 110 -14 33 -15 56 -24 383 -2 99 -11
221 -20 270 -8 50 -20 158 -25 240 -16 240 -28 346 -44 405 -8 30 -22 80 -30
110 -9 30 -16 77 -16 103 0 60 47 182 112 290 26 44 50 87 53 96 6 20 100 66
115 56 5 -3 10 -2 10 3 0 12 -179 152 -194 152 -7 0 -21 -9 -31 -20z"></path>
<path d="M2620 2895 c13 -14 31 -25 39 -25 11 1 6 9 -14 25 -39 32 -55 32 -25
0z"></path>
<path d="M3325 2737 c-4 -10 -5 -21 -1 -24 10 -10 18 4 13 24 -4 17 -4 17 -12
0z"></path>
<path d="M3310 2665 c0 -14 5 -25 10 -25 6 0 10 11 10 25 0 14 -4 25 -10 25
-5 0 -10 -11 -10 -25z"></path>
<path d="M3360 2601 c0 -5 -3 -18 -6 -28 -6 -16 -5 -16 9 2 19 23 21 35 7 35
-5 0 -10 -4 -10 -9z"></path>
<path d="M3298 2498 c-3 -51 -8 -101 -13 -110 -4 -11 -3 -18 3 -18 24 0 64
162 42 175 -5 3 -10 15 -10 26 0 10 -4 19 -9 19 -5 0 -11 -42 -13 -92z"></path>
<path d="M3270 2265 c0 -8 5 -15 10 -15 6 0 10 7 10 15 0 8 -4 15 -10 15 -5 0
-10 -7 -10 -15z"></path>
<path d="M3240 1845 c0 -8 5 -15 10 -15 6 0 10 7 10 15 0 8 -4 15 -10 15 -5 0
-10 -7 -10 -15z"></path>
<path d="M3250 1660 c0 -33 4 -60 10 -60 6 0 10 27 10 60 0 33 -4 60 -10 60
-6 0 -10 -27 -10 -60z"></path>
<path d="M3260 1445 c0 -8 5 -15 10 -15 6 0 10 7 10 15 0 8 -4 15 -10 15 -5 0
-10 -7 -10 -15z"></path>
<path d="M3375 280 c-4 -6 -3 -16 3 -22 6 -6 12 -6 17 2 4 6 3 16 -3 22 -6 6
-12 6 -17 -2z"></path>
<path d="M3390 131 c0 -6 5 -13 10 -16 6 -3 10 1 10 9 0 9 -4 16 -10 16 -5 0
-10 -4 -10 -9z"></path>
</g>
</svg>
